<?xml version="1.0" encoding="UTF-8"?>
<svg width="30px" height="30px" viewBox="0 0 30 30" version="1.1" xmlns="http://www.w3.org/2000/svg" xmlns:xlink="http://www.w3.org/1999/xlink">
    <!-- Generator: Sketch 53.2 (72643) - https://sketchapp.com -->
    <title>图标/36x36/Search</title>
    <desc>Created with Sketch.</desc>
    <defs>
        <path d="M30.9411759,33 L23.8823524,25.4158234 C21.7666255,27.0661067 18.4418569,28.6869398 15.5753801,28.6869398 C8.63024356,28.6869398 3,22.9366777 3,15.8435985 C3,8.75051939 8.63024356,3 15.5753801,3 C22.5200081,3 28.1502517,8.75000481 28.1502517,15.8433412 C28.1502517,18.6403836 27.2652667,21.221299 25.7785122,23.3298228 L33,30.6825115 L30.9411759,33 Z M15.5754137,5.68511111 C10.0815904,5.68511111 5.62802874,10.2328576 5.62802874,15.8433299 C5.62802874,21.4538022 10.081325,26.0020859 15.5754137,26.0020859 C21.0679098,26.0020859 25.521206,21.4538022 25.521206,15.8433299 C25.521206,10.2328576 21.0679098,5.68511111 15.5754137,5.68511111 L15.5754137,5.68511111 Z" id="path-1"></path>
    </defs>
    <g id="UI-KIT" stroke="none" stroke-width="1" fill="none" fill-rule="evenodd">
        <g id="车主惠-图标" transform="translate(-905.000000, -3234.000000)">
            <g id="36X36" transform="translate(252.000000, 3106.000000)">
                <g id="图标/36x36/Search" transform="translate(650.000000, 125.000000)">
                    <mask id="mask-2" fill="white">
                        <use xlink:href="#path-1"></use>
                    </mask>
                    <use id="Shape" fill="#CCCCD6" fill-rule="evenodd" xlink:href="#path-1"></use>
                    <g id="Color/主色/gray-3" mask="url(#mask-2)" fill="#AAAABB" fill-rule="evenodd">
                        <rect id="gray3" x="0" y="0" width="64" height="64"></rect>
                    </g>
                </g>
            </g>
        </g>
    </g>
</svg>